<?xml version="1.0" encoding="UTF-8"?>
<svg xmlns="http://www.w3.org/2000/svg" xmlns:xlink="http://www.w3.org/1999/xlink" width="4714" height="3361" viewBox="0 0 4714 3361">
<path fill-rule="evenodd" fill="rgb(100%, 100%, 100%)" fill-opacity="1" d="M 0.867188 0.121094 L 4713.128906 0.121094 L 4713.128906 3360.109375 L 0.867188 3360.109375 L 0.867188 0.121094 "/>
<path fill-rule="evenodd" fill="rgb(48.631287%, 76.951599%, 3.140259%)" fill-opacity="1" d="M 1622.71875 2794.523438 C 1620.011719 2794.976562 1593.921875 2773.828125 1562.421875 2773.828125 C 1530.929688 2773.828125 1517.429688 2782.828125 1514.730469 2772.027344 C 1512.03125 2761.230469 1527.78125 2746.828125 1509.328125 2739.632812 C 1490.878906 2732.433594 1476.03125 2736.03125 1469.730469 2733.78125 C 1463.429688 2731.53125 1468.378906 2703.636719 1474.679688 2698.683594 C 1480.980469 2693.734375 1502.128906 2684.738281 1508.429688 2670.789062 C 1514.730469 2656.839844 1523.730469 2657.289062 1530.03125 2665.390625 C 1536.328125 2673.488281 1542.621094 2682.9375 1556.570312 2680.238281 C 1570.519531 2677.539062 1559.269531 2666.738281 1579.070312 2667.640625 C 1598.871094 2668.539062 1600.671875 2670.339844 1631.261719 2687.4375 C 1661.859375 2704.535156 1666.808594 2695.535156 1658.710938 2719.832031 C 1650.609375 2744.128906 1743.75 2760.777344 1755.449219 2734.679688 C 1767.148438 2708.585938 1741.949219 2681.585938 1782.898438 2699.585938 C 1823.839844 2717.582031 1873.78125 2722.082031 1878.28125 2731.980469 C 1882.78125 2741.878906 1883.679688 2775.628906 1885.929688 2784.175781 C 1888.179688 2792.726562 1962.429688 2784.175781 1973.679688 2803.972656 C 1984.929688 2823.773438 1972.328125 2840.871094 1973.679688 2853.019531 C 1975.03125 2865.167969 2005.171875 2865.617188 1982.679688 2867.867188 C 1960.179688 2870.117188 1935.429688 2840.871094 1923.28125 2835.019531 C 1911.128906 2829.171875 1889.53125 2823.769531 1884.578125 2833.671875 C 1879.628906 2843.570312 1883.679688 2848.519531 1863.429688 2843.570312 C 1843.191406 2838.621094 1806.289062 2803.074219 1775.25 2822.871094 C 1744.199219 2842.671875 1752.75 2857.519531 1734.75 2832.320312 C 1716.75 2807.125 1706.398438 2787.777344 1686.160156 2789.125 C 1665.910156 2790.476562 1622.71875 2794.523438 1622.71875 2794.523438 "/>
<path fill-rule="evenodd" fill="rgb(48.631287%, 76.951599%, 3.140259%)" fill-opacity="1" d="M 2068.390625 2837.71875 C 2068.390625 2837.71875 2043.421875 2853.019531 2050.621094 2855.941406 C 2057.820312 2858.867188 2069.511719 2868.542969 2077.609375 2858.644531 C 2085.710938 2848.742188 2068.609375 2831.644531 2091.558594 2831.421875 C 2114.511719 2831.195312 2109.109375 2802.175781 2116.078125 2833.222656 C 2123.058594 2864.269531 2141.960938 2870.566406 2111.128906 2876.867188 C 2080.308594 2883.164062 2087.960938 2883.839844 2058.71875 2877.316406 C 2029.46875 2870.792969 2012.589844 2872.59375 2005.839844 2859.542969 C 1999.101562 2846.492188 1995.941406 2830.972656 2000.441406 2826.246094 C 2004.941406 2821.523438 2010.339844 2811.398438 2020.46875 2812.074219 C 2030.589844 2812.746094 2054.441406 2821.746094 2057.359375 2824.445312 C 2060.289062 2827.144531 2068.390625 2837.71875 2068.390625 2837.71875 "/>
<path fill-rule="evenodd" fill="rgb(48.631287%, 76.951599%, 3.140259%)" fill-opacity="1" d="M 2171.429688 2847.617188 C 2167.601562 2845.820312 2152.980469 2833.671875 2145.328125 2846.492188 C 2137.679688 2859.316406 2131.148438 2882.265625 2142.398438 2884.964844 C 2153.648438 2887.664062 2179.75 2880.242188 2189.199219 2875.066406 C 2198.648438 2869.890625 2217.320312 2865.617188 2224.738281 2866.066406 C 2232.171875 2866.515625 2251.738281 2861.34375 2253.988281 2858.191406 C 2256.238281 2855.042969 2270.640625 2852.34375 2258.941406 2843.121094 C 2247.238281 2833.894531 2226.769531 2830.519531 2215.96875 2827.820312 C 2205.171875 2825.121094 2198.871094 2809.597656 2187.621094 2814.546875 C 2176.378906 2819.496094 2164.449219 2820.847656 2177.28125 2829.171875 C 2190.101562 2837.496094 2204.269531 2839.296875 2207.199219 2841.769531 C 2210.121094 2844.246094 2215.75 2850.09375 2210.570312 2856.394531 C 2205.398438 2862.691406 2192.121094 2861.34375 2185.378906 2860.21875 C 2178.628906 2859.09375 2171.429688 2847.617188 2171.429688 2847.617188 "/>
<path fill-rule="evenodd" fill="rgb(48.631287%, 76.951599%, 3.140259%)" fill-opacity="1" d="M 2270.640625 2904.089844 C 2275.359375 2901.613281 2346.679688 2921.636719 2352.078125 2938.734375 C 2357.480469 2955.832031 2357.480469 2975.179688 2331.828125 2978.78125 C 2306.179688 2982.378906 2297.179688 2979.679688 2290.890625 2963.480469 C 2284.589844 2947.285156 2289.988281 2929.285156 2272.441406 2929.285156 C 2254.890625 2929.285156 2244.539062 2936.484375 2244.539062 2925.234375 C 2244.539062 2913.988281 2270.640625 2904.089844 2270.640625 2904.089844 "/>
<path fill-rule="evenodd" fill="rgb(48.631287%, 76.951599%, 3.140259%)" fill-opacity="1" d="M 2502.808594 2986.878906 C 2496.960938 2986.429688 2471.320312 2991.378906 2469.519531 3001.726562 C 2467.71875 3012.078125 2467.269531 3028.273438 2479.410156 3023.773438 C 2491.558594 3019.277344 2500.558594 2994.527344 2500.558594 2994.527344 L 2502.808594 2986.878906 "/>
<path fill-rule="evenodd" fill="rgb(48.631287%, 76.951599%, 3.140259%)" fill-opacity="1" d="M 2501.011719 2972.03125 C 2501.011719 2972.03125 2538.808594 2983.730469 2550.960938 2977.429688 C 2563.109375 2971.132812 2555.910156 2949.085938 2573.898438 2944.132812 C 2591.898438 2939.183594 2640.050781 2922.085938 2641.398438 2913.988281 C 2642.75 2905.886719 2635.101562 2886.539062 2618.449219 2886.539062 C 2601.800781 2886.539062 2598.199219 2878.441406 2591.898438 2895.539062 C 2585.601562 2912.636719 2583.800781 2910.386719 2562.210938 2912.636719 C 2540.609375 2914.886719 2530.710938 2909.488281 2523.511719 2926.136719 C 2516.308594 2942.785156 2501.011719 2972.03125 2501.011719 2972.03125 "/>
<path fill-rule="evenodd" fill="rgb(48.631287%, 76.951599%, 3.140259%)" fill-opacity="1" d="M 2587.179688 2819.496094 C 2582 2823.546875 2566.929688 2847.84375 2584.929688 2849.195312 C 2602.929688 2850.546875 2611.480469 2860.894531 2618.230469 2845.371094 C 2624.96875 2829.847656 2633.070312 2827.148438 2625.199219 2822.421875 C 2617.328125 2817.699219 2610.351562 2811.847656 2605.179688 2816.121094 C 2600 2820.398438 2587.179688 2819.496094 2587.179688 2819.496094 "/>
<path fill-rule="evenodd" fill="rgb(48.631287%, 76.951599%, 3.140259%)" fill-opacity="1" d="M 2566.710938 2844.019531 C 2568.960938 2844.019531 2576.378906 2852.570312 2572.558594 2855.269531 C 2568.730469 2857.96875 2559.960938 2856.617188 2559.960938 2856.617188 L 2566.710938 2844.019531 "/>
<path fill-rule="evenodd" fill="rgb(48.631287%, 76.951599%, 3.140259%)" fill-opacity="1" d="M 2554.78125 2831.871094 C 2553.429688 2832.097656 2545.558594 2843.570312 2545.558594 2846.945312 C 2545.558594 2850.320312 2536.78125 2859.320312 2532.511719 2859.769531 C 2528.230469 2860.21875 2520.808594 2855.269531 2521.480469 2848.746094 C 2522.160156 2842.21875 2536.328125 2825.121094 2539.03125 2825.121094 C 2541.730469 2825.121094 2554.78125 2831.871094 2554.78125 2831.871094 "/>
<path fill-rule="evenodd" fill="rgb(48.631287%, 76.951599%, 3.140259%)" fill-opacity="1" d="M 2507.988281 2821.523438 C 2507.988281 2821.523438 2504.390625 2827.371094 2504.390625 2839.972656 C 2504.390625 2852.570312 2514.730469 2849.871094 2504.390625 2857.519531 C 2494.039062 2865.167969 2485.941406 2854.371094 2470.191406 2863.367188 C 2454.441406 2872.367188 2435.988281 2879.566406 2424.738281 2880.46875 C 2413.5 2881.367188 2402.699219 2868.320312 2385.148438 2874.167969 C 2367.601562 2880.015625 2366.699219 2883.167969 2359.050781 2879.566406 C 2351.398438 2875.96875 2356.351562 2855.71875 2338.359375 2857.519531 C 2320.359375 2859.320312 2294.710938 2865.617188 2292.011719 2862.917969 C 2289.308594 2860.21875 2293.359375 2840.871094 2302.808594 2837.273438 C 2312.261719 2833.671875 2335.648438 2820.625 2354.101562 2829.621094 C 2372.550781 2838.621094 2391.898438 2840.871094 2400.449219 2840.871094 C 2409 2840.871094 2413.5 2836.371094 2424.738281 2843.121094 C 2435.988281 2849.871094 2447.238281 2849.871094 2454.890625 2844.921875 C 2462.539062 2839.972656 2475.140625 2829.621094 2478.738281 2823.324219 C 2482.339844 2817.023438 2486.839844 2808.023438 2494.039062 2808.476562 C 2501.238281 2808.925781 2507.988281 2821.523438 2507.988281 2821.523438 "/>
<path fill-rule="evenodd" fill="rgb(48.631287%, 76.951599%, 3.140259%)" fill-opacity="1" d="M 2711.738281 2782.367188 C 2711.738281 2782.367188 2699.25 2784.554688 2693.101562 2785.074219 C 2686.960938 2785.59375 2686.441406 2780.699219 2683.011719 2787.46875 C 2679.570312 2794.234375 2675.511719 2801.003906 2682.480469 2805.0625 C 2689.460938 2809.125 2701.230469 2809.957031 2704.351562 2807.144531 C 2707.46875 2804.335938 2727.980469 2801.835938 2733.078125 2796.550781 C 2734.199219 2791.828125 2731.5 2777.878906 2728.800781 2774.730469 C 2726.101562 2771.578125 2711.738281 2782.367188 2711.738281 2782.367188 "/>
<path fill-rule="evenodd" fill="rgb(48.631287%, 76.951599%, 3.140259%)" fill-opacity="1" d="M 2896.859375 2803.527344 C 2900.910156 2811.175781 2904.050781 2830.523438 2907.648438 2833.222656 C 2911.25 2835.921875 2935.550781 2832.773438 2934.199219 2822.875 C 2932.851562 2812.976562 2937.351562 2789.578125 2924.300781 2789.578125 C 2911.25 2789.578125 2896.859375 2803.527344 2896.859375 2803.527344 "/>
<path fill-rule="evenodd" fill="rgb(48.631287%, 76.951599%, 3.140259%)" fill-opacity="1" d="M 2794.039062 2832.773438 C 2804.621094 2836.597656 2818.121094 2839.523438 2818.570312 2833.671875 C 2819.011719 2827.824219 2830.941406 2820.398438 2816.988281 2818.601562 C 2803.039062 2816.800781 2797.871094 2819.050781 2797.421875 2822.875 C 2796.96875 2826.699219 2794.039062 2832.773438 2794.039062 2832.773438 "/>
<path fill-rule="evenodd" fill="rgb(48.631287%, 76.951599%, 3.140259%)" fill-opacity="1" d="M 2751.75 2818.824219 C 2756.25 2821.75 2768.171875 2827.148438 2762.769531 2830.523438 C 2757.371094 2833.898438 2744.550781 2831.648438 2744.320312 2829.625 C 2744.101562 2827.597656 2751.75 2818.824219 2751.75 2818.824219 "/>
<path fill-rule="evenodd" fill="rgb(48.631287%, 76.951599%, 3.140259%)" fill-opacity="1" d="M 2769.519531 2765.507812 C 2773.570312 2776.753906 2774.921875 2785.527344 2768.839844 2787.328125 C 2762.769531 2789.128906 2751.519531 2786.878906 2752.871094 2779.230469 C 2754.21875 2771.578125 2769.519531 2765.507812 2769.519531 2765.507812 "/>
<path fill-rule="evenodd" fill="rgb(48.631287%, 76.951599%, 3.140259%)" fill-opacity="1" d="M 2835.660156 2742.109375 C 2835.890625 2747.507812 2836.558594 2760.332031 2845.339844 2761.230469 C 2854.109375 2762.132812 2858.609375 2759.207031 2858.160156 2754.257812 C 2857.710938 2749.308594 2856.359375 2741.882812 2852.089844 2741.882812 C 2847.808594 2741.882812 2835.660156 2742.109375 2835.660156 2742.109375 "/>
<path fill-rule="evenodd" fill="rgb(48.631287%, 76.951599%, 3.140259%)" fill-opacity="1" d="M 2991.570312 2814.777344 C 2989.769531 2814.777344 2978.738281 2815.675781 2977.171875 2825.574219 C 2975.601562 2835.472656 2975.140625 2848.746094 2994.269531 2835.925781 C 3013.390625 2823.101562 3004.839844 2821.074219 3013.390625 2814.550781 C 3021.941406 2808.027344 3047.808594 2754.03125 3035.441406 2758.980469 C 3023.058594 2763.933594 3013.390625 2786.878906 3007.769531 2780.578125 C 3002.140625 2774.28125 2985.941406 2759.65625 2980.988281 2762.132812 C 2976.050781 2764.605469 2969.070312 2781.253906 2975.140625 2786.429688 C 2981.21875 2791.605469 2989.539062 2787.328125 2991.339844 2795.878906 C 2993.140625 2804.429688 2991.570312 2814.777344 2991.570312 2814.777344 "/>
<path fill-rule="evenodd" fill="rgb(48.631287%, 76.951599%, 3.140259%)" fill-opacity="1" d="M 3199.890625 2646.496094 C 3205.96875 2645.371094 3217.441406 2641.097656 3218.121094 2649.871094 C 3218.789062 2658.644531 3216.539062 2665.617188 3204.839844 2665.617188 C 3193.140625 2665.617188 3185.488281 2663.367188 3185.050781 2657.070312 C 3184.601562 2650.769531 3199.890625 2646.496094 3199.890625 2646.496094 "/>
<path fill-rule="evenodd" fill="rgb(48.631287%, 76.951599%, 3.140259%)" fill-opacity="1" d="M 3185.949219 2677.09375 C 3185.949219 2677.09375 3222.390625 2670.792969 3225.320312 2678.667969 C 3228.238281 2686.539062 3228.578125 2737.273438 3215.980469 2737.949219 C 3203.378906 2738.621094 3184.480469 2734.800781 3181.328125 2730.972656 C 3178.179688 2727.148438 3176.828125 2714.324219 3177.28125 2708.925781 C 3177.730469 2703.527344 3185.949219 2677.09375 3185.949219 2677.09375 "/>
<path fill-rule="evenodd" fill="rgb(48.631287%, 76.951599%, 3.140259%)" fill-opacity="1" d="M 3121.488281 2635.136719 C 3121.488281 2646.160156 3130.710938 2665.28125 3118.789062 2669.332031 C 3106.871094 2673.382812 3101.46875 2660.332031 3096.289062 2665.507812 C 3091.121094 2670.679688 3093.140625 2680.804688 3087.289062 2672.03125 C 3081.441406 2663.257812 3076.050781 2645.933594 3078.96875 2642.558594 C 3081.890625 2639.183594 3090.441406 2627.035156 3096.289062 2636.261719 C 3102.140625 2645.484375 3102.140625 2659.433594 3109.789062 2658.980469 C 3117.441406 2658.53125 3121.488281 2635.136719 3121.488281 2635.136719 "/>
<path fill-rule="evenodd" fill="rgb(48.631287%, 76.951599%, 3.140259%)" fill-opacity="1" d="M 4110.03125 2976.648438 C 4083.929688 2977.546875 4024.539062 2970.347656 3980.449219 2935.253906 C 3936.351562 2900.15625 3888.648438 2842.5625 3858.960938 2813.765625 C 3829.261719 2784.96875 3790.570312 2749.871094 3764.46875 2772.371094 C 3738.371094 2794.867188 3734.769531 2835.363281 3728.46875 2860.5625 C 3722.171875 2885.757812 3713.171875 2884.859375 3665.480469 2886.65625 C 3617.78125 2888.457031 3583.589844 2893.855469 3563.789062 2869.558594 C 3543.988281 2845.261719 3545.789062 2811.964844 3509.800781 2823.664062 C 3473.800781 2835.363281 3385.609375 2802.96875 3398.210938 2790.371094 C 3410.808594 2777.769531 3482.800781 2756.171875 3453.101562 2712.976562 C 3423.410156 2669.78125 3371.210938 2598.691406 3315.421875 2595.089844 C 3259.628906 2591.492188 3198.429688 2561.796875 3195.730469 2550.097656 C 3193.03125 2538.398438 3173.679688 2480.804688 3162.441406 2493.851562 C 3151.191406 2506.902344 3121.488281 2546.046875 3113.390625 2541.996094 C 3105.289062 2537.949219 3072.890625 2478.105469 3067.5 2474.503906 C 3062.101562 2470.90625 3021.601562 2446.15625 3053.101562 2447.507812 C 3084.589844 2448.855469 3089.988281 2452.007812 3101.691406 2449.757812 C 3113.390625 2447.507812 3119.238281 2431.308594 3136.339844 2436.710938 C 3153.441406 2442.109375 3197.078125 2432.210938 3177.730469 2426.808594 C 3158.378906 2421.410156 3077.839844 2423.886719 3059.621094 2411.960938 C 3041.398438 2400.039062 3052.199219 2374.164062 3022.050781 2375.964844 C 2991.898438 2377.765625 2977.050781 2357.070312 2976.609375 2348.070312 C 2976.148438 2339.070312 2995.5 2337.71875 3003.601562 2346.269531 C 3011.699219 2354.820312 3013.050781 2371.914062 3019.351562 2355.71875 C 3025.648438 2339.519531 3022.050781 2327.371094 3026.550781 2326.921875 C 3031.050781 2326.46875 3053.101562 2312.96875 3061.640625 2309.820312 C 3070.191406 2306.671875 3096.738281 2273.378906 3113.839844 2301.269531 C 3130.941406 2329.171875 3159.730469 2338.171875 3168.730469 2335.921875 C 3177.730469 2333.671875 3200.679688 2314.769531 3203.828125 2337.269531 C 3206.980469 2359.769531 3192.128906 2408.585938 3193.929688 2430.636719 C 3195.730469 2452.683594 3189.878906 2470.003906 3197.761719 2455.832031 C 3205.628906 2441.660156 3213.050781 2421.410156 3218.898438 2440.535156 C 3224.75 2459.65625 3247.03125 2503.753906 3259.851562 2495.425781 C 3272.671875 2487.105469 3265.921875 2456.730469 3297.871094 2451.78125 C 3329.820312 2446.832031 3310.46875 2430.183594 3327.570312 2422.535156 C 3344.671875 2414.886719 3357.261719 2417.585938 3361.308594 2414.886719 C 3365.359375 2412.1875 3338.371094 2376.191406 3372.558594 2375.289062 C 3406.761719 2374.390625 3605.191406 2473.828125 3672.679688 2486.429688 C 3740.171875 2499.027344 3760.871094 2520.625 3774.371094 2553.019531 C 3787.871094 2585.417969 3856.261719 2577.316406 3888.660156 2603.414062 C 3921.050781 2629.511719 3973.25 2685.304688 3968.75 2710.503906 C 3964.25 2735.699219 3912.050781 2697.003906 3927.351562 2731.203125 C 3942.648438 2765.398438 4014.640625 2870.6875 4068.640625 2895.882812 C 4122.628906 2921.082031 4118.578125 2949.878906 4133.429688 2948.976562 C 4148.28125 2948.078125 4164.929688 2952.128906 4153.230469 2968.777344 C 4141.53125 2985.425781 4110.03125 2976.648438 4110.03125 2976.648438 "/>
<path fill-rule="evenodd" fill="rgb(48.631287%, 76.951599%, 3.140259%)" fill-opacity="1" d="M 2870.421875 2486.429688 C 2870.640625 2496.328125 2879.421875 2510.953125 2865.46875 2511.179688 C 2851.519531 2511.402344 2850.171875 2512.300781 2840.050781 2497.230469 C 2829.929688 2482.15625 2823.398438 2484.40625 2818.449219 2488.679688 C 2813.5 2492.953125 2807.648438 2474.957031 2827 2470.230469 C 2846.351562 2465.507812 2856.699219 2478.78125 2886.621094 2465.28125 C 2916.539062 2451.785156 2933.640625 2463.484375 2951.859375 2476.980469 C 2970.078125 2490.480469 3001.578125 2512.976562 2991.011719 2518.601562 C 2980.429688 2524.226562 2947.359375 2528.050781 2942.859375 2525.351562 C 2938.359375 2522.652344 2930.488281 2499.480469 2919.691406 2502.402344 C 2908.890625 2505.328125 2900.789062 2506.902344 2893.140625 2506.902344 C 2885.488281 2506.902344 2870.421875 2486.429688 2870.421875 2486.429688 "/>
<path fill-rule="evenodd" fill="rgb(48.631287%, 76.951599%, 3.140259%)" fill-opacity="1" d="M 2753.660156 2487.78125 C 2760.179688 2494.304688 2781.101562 2516.578125 2776.378906 2519.726562 C 2771.660156 2522.875 2760.179688 2511.402344 2752.078125 2519.277344 C 2743.980469 2527.152344 2736.558594 2543.574219 2726.660156 2535.699219 C 2716.761719 2527.824219 2686.621094 2512.078125 2686.621094 2500.605469 C 2686.621094 2489.128906 2692.910156 2472.257812 2701.238281 2475.179688 C 2709.558594 2478.105469 2753.660156 2487.78125 2753.660156 2487.78125 "/>
<path fill-rule="evenodd" fill="rgb(48.631287%, 76.951599%, 3.140259%)" fill-opacity="1" d="M 2821.828125 2398.242188 C 2817.328125 2400.265625 2806.300781 2391.492188 2791.679688 2397.117188 C 2777.058594 2402.738281 2769.410156 2409.265625 2768.730469 2394.640625 C 2768.058594 2380.019531 2769.410156 2366.742188 2777.730469 2366.292969 C 2786.058594 2365.84375 2806.53125 2361.570312 2811.25 2366.070312 C 2815.980469 2370.566406 2823.179688 2385.867188 2821.828125 2398.242188 "/>
<path fill-rule="evenodd" fill="rgb(48.631287%, 76.951599%, 3.140259%)" fill-opacity="1" d="M 2815.980469 2193.058594 C 2813.730469 2202.511719 2808.328125 2228.160156 2801.128906 2213.308594 C 2793.929688 2198.460938 2797.078125 2198.011719 2815.53125 2179.121094 C 2833.980469 2160.21875 2847.03125 2119.71875 2824.53125 2128.71875 C 2802.03125 2137.71875 2797.078125 2146.269531 2787.628906 2172.820312 C 2778.179688 2199.359375 2764.230469 2213.761719 2771.429688 2231.761719 C 2778.628906 2249.761719 2788.078125 2244.808594 2788.078125 2259.210938 C 2788.078125 2273.609375 2800.679688 2315.898438 2812.828125 2326.699219 C 2824.980469 2337.5 2845.21875 2346.949219 2844.78125 2335.25 C 2844.320312 2323.550781 2846.570312 2321.300781 2833.078125 2307.351562 C 2819.578125 2293.398438 2804.28125 2254.710938 2812.378906 2251.558594 C 2820.480469 2248.410156 2837.578125 2249.761719 2849.71875 2251.109375 C 2861.871094 2252.460938 2884.820312 2241.210938 2869.96875 2237.609375 C 2855.121094 2234.011719 2841.621094 2235.808594 2840.28125 2225.011719 C 2838.929688 2214.210938 2853.769531 2199.808594 2861.871094 2198.460938 C 2869.96875 2197.109375 2880.550781 2165.171875 2861.199219 2168.769531 C 2841.851562 2172.371094 2833.75 2179.339844 2830.601562 2183.171875 C 2827.449219 2186.988281 2815.980469 2193.058594 2815.980469 2193.058594 "/>
<path fill-rule="evenodd" fill="rgb(48.631287%, 76.951599%, 3.140259%)" fill-opacity="1" d="M 3003.160156 2274.730469 C 2999.78125 2275.628906 2980.429688 2276.300781 2973.910156 2285.75 C 2967.378906 2295.199219 2981.558594 2298.351562 2990.78125 2300.378906 C 3000.011719 2302.398438 3007.429688 2311.398438 3015.75 2307.578125 C 3024.078125 2303.75 3031.050781 2291.148438 3031.050781 2285.980469 C 3031.050781 2280.800781 3003.160156 2274.730469 3003.160156 2274.730469 "/>
<path fill-rule="evenodd" fill="rgb(48.631287%, 76.951599%, 3.140259%)" fill-opacity="1" d="M 2898.988281 2265.730469 C 2901.921875 2271.128906 2930.941406 2278.550781 2921.269531 2288.230469 C 2911.589844 2297.898438 2906.191406 2300.601562 2900.789062 2297.679688 C 2895.390625 2294.75 2885.050781 2288.230469 2886.839844 2279.230469 C 2888.640625 2270.230469 2898.988281 2265.730469 2898.988281 2265.730469 "/>
<path fill-rule="evenodd" fill="rgb(48.631287%, 76.951599%, 3.140259%)" fill-opacity="1" d="M 2941.289062 2383.617188 C 2944.890625 2383.84375 2964.691406 2377.316406 2967.160156 2389.691406 C 2969.628906 2402.066406 2961.988281 2412.414062 2948.488281 2409.488281 C 2934.988281 2406.5625 2926.890625 2402.066406 2926.441406 2396.664062 C 2925.988281 2391.265625 2941.289062 2383.617188 2941.289062 2383.617188 "/>
<path fill-rule="evenodd" fill="rgb(48.631287%, 76.951599%, 3.140259%)" fill-opacity="1" d="M 3299 2313.648438 C 3299 2313.648438 3314.75 2342.449219 3318.570312 2342.449219 C 3322.398438 2342.449219 3341.519531 2354.148438 3325.769531 2355.050781 C 3310.019531 2355.949219 3296.300781 2357.289062 3292.019531 2345.601562 C 3287.75 2333.898438 3295.621094 2325.570312 3284.828125 2327.148438 C 3274.03125 2328.71875 3258.28125 2334.570312 3260.75 2326.25 C 3263.230469 2317.921875 3271.78125 2310.71875 3276.730469 2310.71875 C 3281.679688 2310.71875 3299 2313.648438 3299 2313.648438 "/>
<path fill-rule="evenodd" fill="rgb(48.631287%, 76.951599%, 3.140259%)" fill-opacity="1" d="M 3237.800781 2330.070312 C 3251.53125 2338.171875 3267.730469 2344.699219 3255.351562 2350.101562 C 3242.980469 2355.5 3236.898438 2361.121094 3232.628906 2352.351562 C 3228.359375 2343.570312 3237.800781 2330.070312 3237.800781 2330.070312 "/>
<path fill-rule="evenodd" fill="rgb(48.631287%, 76.951599%, 3.140259%)" fill-opacity="1" d="M 3289.328125 2377.542969 C 3293.601562 2378.894531 3309.351562 2387.890625 3321.949219 2385.867188 C 3334.539062 2383.84375 3344.441406 2374.84375 3345.789062 2382.492188 C 3347.140625 2390.140625 3352.769531 2404.765625 3334.320312 2404.089844 C 3315.871094 2403.414062 3295.621094 2401.390625 3285.730469 2398.691406 C 3275.828125 2395.992188 3267.730469 2382.269531 3273.800781 2380.242188 C 3279.878906 2378.21875 3289.328125 2377.542969 3289.328125 2377.542969 "/>
<path fill-rule="evenodd" fill="rgb(48.631287%, 76.951599%, 3.140259%)" fill-opacity="1" d="M 2505.960938 2582.945312 C 2503.261719 2589.019531 2495.390625 2609.492188 2491.109375 2622.765625 C 2486.839844 2636.039062 2479.191406 2654.488281 2495.839844 2648.636719 C 2512.488281 2642.789062 2517.210938 2637.390625 2515.179688 2630.640625 C 2513.160156 2623.890625 2499.210938 2621.640625 2512.03125 2613.089844 C 2524.859375 2604.542969 2532.730469 2600.269531 2533.179688 2597.566406 C 2533.628906 2594.867188 2542.410156 2581.144531 2530.03125 2580.46875 C 2517.660156 2579.796875 2507.308594 2580.695312 2507.308594 2580.695312 L 2505.960938 2582.945312 "/>
<path fill-rule="evenodd" fill="rgb(48.631287%, 76.951599%, 3.140259%)" fill-opacity="1" d="M 2472.441406 2593.292969 C 2473.789062 2591.492188 2478.96875 2577.097656 2481.441406 2589.46875 C 2483.910156 2601.84375 2480.988281 2615.789062 2476.488281 2623.890625 C 2471.988281 2631.988281 2467.269531 2640.3125 2462.539062 2635.589844 C 2457.820312 2630.863281 2447.691406 2626.140625 2456.238281 2616.242188 C 2464.789062 2606.34375 2472.441406 2593.292969 2472.441406 2593.292969 "/>
<path fill-rule="evenodd" fill="rgb(48.631287%, 76.951599%, 3.140259%)" fill-opacity="1" d="M 2444.769531 2620.515625 C 2444.539062 2625.914062 2446.570312 2636.039062 2438.921875 2638.0625 C 2431.269531 2640.089844 2426.769531 2630.191406 2427 2626.140625 C 2427.21875 2622.089844 2434.421875 2615.789062 2435.988281 2615.789062 C 2437.570312 2615.789062 2444.769531 2620.515625 2444.769531 2620.515625 "/>
<path fill-rule="evenodd" fill="rgb(48.631287%, 76.951599%, 3.140259%)" fill-opacity="1" d="M 2360.398438 2670.460938 C 2364 2683.960938 2367.601562 2701.957031 2357.25 2706.007812 C 2346.898438 2710.054688 2336.109375 2707.355469 2336.109375 2694.308594 C 2336.109375 2681.257812 2360.398438 2670.460938 2360.398438 2670.460938 "/>
<path fill-rule="evenodd" fill="rgb(48.631287%, 76.951599%, 3.140259%)" fill-opacity="1" d="M 2367.148438 2741.777344 C 2370.75 2744.027344 2386.949219 2762.476562 2370.75 2762.925781 C 2354.550781 2763.375 2347.128906 2759.101562 2345.78125 2757.976562 C 2344.429688 2756.851562 2346.230469 2744.027344 2349.148438 2743.578125 C 2352.078125 2743.128906 2367.148438 2741.777344 2367.148438 2741.777344 "/>
<path fill-rule="evenodd" fill="rgb(48.631287%, 76.951599%, 3.140259%)" fill-opacity="1" d="M 2528.230469 2553.25 C 2528.230469 2553.25 2488.191406 2559.996094 2470.191406 2573.945312 C 2452.191406 2587.894531 2441.839844 2602.292969 2424.289062 2597.34375 C 2406.75 2592.394531 2395.050781 2576.644531 2404.949219 2563.597656 C 2414.851562 2550.550781 2436.890625 2543.351562 2414.851562 2538.851562 C 2392.800781 2534.351562 2378.398438 2544.25 2381.550781 2524.003906 C 2384.699219 2503.753906 2418 2484.855469 2397.300781 2474.058594 C 2376.601562 2463.257812 2341.960938 2479.90625 2340.148438 2490.707031 C 2338.359375 2501.503906 2369.398438 2516.351562 2365.351562 2533.902344 C 2361.300781 2551.449219 2351.851562 2597.796875 2353.648438 2623.890625 C 2355.449219 2649.988281 2373.449219 2663.035156 2338.351562 2657.1875 C 2303.261719 2651.339844 2263.210938 2667.085938 2272.210938 2625.242188 C 2281.210938 2583.394531 2312.710938 2517.703125 2294.261719 2514.554688 C 2275.808594 2511.402344 2233.96875 2510.503906 2247.910156 2482.15625 C 2261.859375 2453.808594 2299.210938 2389.46875 2296.058594 2353.019531 C 2292.910156 2316.578125 2307.761719 2297.679688 2311.359375 2294.980469 C 2314.960938 2292.28125 2302.359375 2275.179688 2315.859375 2253.128906 C 2329.351562 2231.089844 2341.5 2217.589844 2352.75 2213.988281 C 2364 2210.390625 2394.601562 2194.640625 2406.75 2198.238281 C 2418.890625 2201.839844 2492.238281 2244.128906 2552.980469 2222.539062 C 2613.71875 2200.941406 2629.921875 2150.089844 2644.320312 2164.488281 C 2658.71875 2178.890625 2663.21875 2222.539062 2636.21875 2228.390625 C 2609.21875 2234.230469 2602.929688 2264.378906 2560.179688 2260.328125 C 2517.429688 2256.28125 2424.289062 2251.328125 2404.5 2250.429688 C 2384.699219 2249.53125 2344.648438 2262.128906 2342.851562 2282.828125 C 2341.050781 2303.53125 2348.25 2390.367188 2383.800781 2365.171875 C 2419.339844 2339.96875 2416.640625 2321.078125 2437.789062 2329.171875 C 2458.941406 2337.269531 2495.378906 2333.671875 2516.980469 2325.570312 C 2538.578125 2317.480469 2557.480469 2303.078125 2558.378906 2317.929688 C 2559.28125 2332.769531 2525.53125 2329.621094 2503.929688 2342.671875 C 2482.339844 2355.71875 2465.691406 2389.019531 2455.789062 2394.417969 C 2445.890625 2399.816406 2423.839844 2401.164062 2420.238281 2408.367188 C 2416.640625 2415.566406 2472.441406 2449.3125 2476.039062 2475.410156 C 2479.640625 2501.503906 2462.539062 2499.257812 2462.089844 2520.855469 C 2461.640625 2542.449219 2485.488281 2551.898438 2497.179688 2549.199219 C 2508.878906 2546.5 2540.828125 2511.40625 2528.230469 2553.25 "/>
<path fill-rule="evenodd" fill="rgb(48.631287%, 76.951599%, 3.140259%)" fill-opacity="1" d="M 2525.761719 2360 C 2542.628906 2356.851562 2556.808594 2358.199219 2557.929688 2369.445312 C 2559.050781 2380.695312 2555 2394.191406 2549.378906 2391.492188 C 2543.761719 2388.792969 2537.679688 2372.371094 2529.128906 2372.371094 C 2520.578125 2372.371094 2513.609375 2383.617188 2511.128906 2371.695312 C 2508.660156 2359.769531 2508.878906 2353.46875 2512.261719 2353.46875 C 2515.628906 2353.46875 2525.761719 2360 2525.761719 2360 "/>
<path fill-rule="evenodd" fill="rgb(48.631287%, 76.951599%, 3.140259%)" fill-opacity="1" d="M 2610.460938 2386.769531 C 2612.710938 2389.46875 2628.011719 2386.992188 2633.859375 2385.195312 C 2639.710938 2383.394531 2646.910156 2368.097656 2653.210938 2380.921875 C 2659.5 2393.742188 2658.378906 2406.34375 2652.078125 2407.46875 C 2645.78125 2408.59375 2631.160156 2398.019531 2623.960938 2400.941406 C 2616.761719 2403.867188 2612.710938 2417.816406 2605.738281 2416.242188 C 2598.761719 2414.664062 2582.789062 2396.667969 2590.441406 2391.492188 C 2598.089844 2386.320312 2609.558594 2383.621094 2609.558594 2383.621094 L 2610.460938 2386.769531 "/>
<path fill-rule="evenodd" fill="rgb(48.631287%, 76.951599%, 3.140259%)" fill-opacity="1" d="M 2672.550781 2393.066406 C 2672.550781 2393.066406 2696.851562 2380.46875 2703.378906 2388.570312 C 2709.898438 2396.667969 2715.300781 2412.867188 2705.628906 2412.867188 C 2695.949219 2412.867188 2676.378906 2406.566406 2673.679688 2406.566406 C 2670.980469 2406.566406 2666.480469 2405.667969 2668.050781 2401.394531 C 2669.628906 2397.117188 2672.550781 2393.066406 2672.550781 2393.066406 "/>
<path fill-rule="evenodd" fill="rgb(48.631287%, 76.951599%, 3.140259%)" fill-opacity="1" d="M 2704.28125 2433.113281 C 2704.949219 2436.488281 2696.179688 2455.160156 2688.75 2448.636719 C 2681.328125 2442.113281 2676.828125 2427.265625 2677.730469 2423.664062 C 2678.628906 2420.066406 2690.550781 2410.167969 2693.929688 2413.765625 C 2697.300781 2417.367188 2704.28125 2433.113281 2704.28125 2433.113281 "/>
<path fill-rule="evenodd" fill="rgb(48.631287%, 76.951599%, 3.140259%)" fill-opacity="1" d="M 2779.191406 2308.929688 C 2779.191406 2308.929688 2799.890625 2327.828125 2801.019531 2330.75 C 2802.140625 2333.671875 2795.171875 2342.449219 2789.320312 2337.5 C 2783.46875 2332.550781 2771.769531 2323.328125 2771.320312 2317.699219 C 2770.871094 2312.078125 2779.191406 2308.929688 2779.191406 2308.929688 "/>
<path fill-rule="evenodd" fill="rgb(48.631287%, 76.951599%, 3.140259%)" fill-opacity="1" d="M 2765.921875 2297.230469 C 2765.921875 2297.230469 2774.238281 2310.5 2766.820312 2311.179688 C 2759.390625 2311.851562 2750.398438 2311.398438 2754.890625 2306.449219 C 2759.390625 2301.5 2765.921875 2297.230469 2765.921875 2297.230469 "/>
<path fill-rule="evenodd" fill="rgb(48.631287%, 76.951599%, 3.140259%)" fill-opacity="1" d="M 2768.839844 2327.378906 C 2774.691406 2331.199219 2783.691406 2339.96875 2776.488281 2341.320312 C 2769.289062 2342.671875 2758.488281 2346.050781 2759.171875 2339.96875 C 2759.839844 2333.898438 2768.839844 2327.378906 2768.839844 2327.378906 "/>
<path fill-rule="evenodd" fill="rgb(48.631287%, 76.951599%, 3.140259%)" fill-opacity="1" d="M 2744.769531 1959.320312 C 2750.621094 1961.121094 2782.570312 1979.570312 2765.921875 1988.558594 C 2749.269531 1997.558594 2738.921875 2009.710938 2732.621094 1995.308594 C 2726.320312 1980.910156 2726.320312 1966.070312 2729.46875 1964.71875 C 2732.621094 1963.371094 2744.769531 1959.320312 2744.769531 1959.320312 "/>
<path fill-rule="evenodd" fill="rgb(48.631287%, 76.951599%, 3.140259%)" fill-opacity="1" d="M 2670.980469 2009.710938 C 2672.328125 2022.308594 2681.78125 2041.660156 2672.78125 2047.511719 C 2663.78125 2053.359375 2641.730469 2070.011719 2641.28125 2051.109375 C 2640.828125 2032.210938 2640.378906 2020.960938 2648.929688 2018.261719 C 2657.480469 2015.558594 2670.980469 2009.710938 2670.980469 2009.710938 "/>
<path fill-rule="evenodd" fill="rgb(48.631287%, 76.951599%, 3.140259%)" fill-opacity="1" d="M 2080.640625 2504.207031 C 2086.941406 2515.003906 2096.839844 2521.304688 2088.289062 2533.902344 C 2079.738281 2546.503906 2096.390625 2562.699219 2107.640625 2537.503906 C 2118.890625 2512.304688 2113.039062 2499.707031 2107.640625 2495.207031 C 2102.238281 2490.707031 2097.738281 2474.960938 2103.140625 2468.660156 C 2108.539062 2462.359375 2123.390625 2446.164062 2114.390625 2433.113281 C 2105.390625 2420.066406 2096.839844 2387.671875 2108.539062 2380.921875 C 2120.238281 2374.171875 2135.089844 2368.546875 2140.941406 2350.101562 C 2146.789062 2331.648438 2171.761719 2324 2172.878906 2321.300781 C 2174.011719 2318.601562 2169.28125 2301.949219 2169.28125 2301.949219 C 2169.28125 2301.949219 2189.761719 2265.058594 2192.460938 2249.308594 C 2195.160156 2233.558594 2199.878906 2221.640625 2215.628906 2221.859375 C 2231.378906 2222.089844 2263.328125 2216.238281 2239.480469 2192.839844 C 2215.628906 2169.441406 2203.929688 2154.148438 2198.980469 2129.851562 C 2194.03125 2105.550781 2198.53125 2084.398438 2187.730469 2059.210938 C 2176.929688 2034.011719 2213.828125 2011.511719 2213.828125 2011.511719 C 2213.828125 2011.511719 2226.878906 2000.261719 2212.03125 1997.109375 C 2197.179688 1993.960938 2203.929688 1975.519531 2220.578125 1973.039062 C 2237.230469 1970.570312 2256.578125 1967.191406 2241.730469 1957.96875 C 2226.878906 1948.738281 2198.980469 1941.089844 2226.429688 1937.050781 C 2253.878906 1933 2305.621094 1923.550781 2291.21875 1915.898438 C 2276.828125 1908.25 2206.179688 1894.75 2187.28125 1866.398438 C 2168.390625 1838.058594 2165.238281 1786.308594 2153.089844 1792.609375 C 2140.941406 1798.910156 2135.988281 1840.308594 2121.140625 1852.910156 C 2106.289062 1865.5 2090.101562 1852.910156 2090.539062 1867.75 C 2090.988281 1882.601562 2097.289062 1888 2092.351562 1896.550781 C 2087.390625 1905.101562 2054.550781 1900.148438 2051.851562 1910.5 C 2049.148438 1920.851562 2068.949219 1942 2058.148438 1945.589844 C 2047.351562 1949.191406 2044.199219 1930.300781 2032.5 1933.449219 C 2020.800781 1936.601562 1938.910156 1953.691406 1949.710938 1985.640625 C 1960.511719 2017.589844 1971.308594 2018.039062 1947.011719 2038.28125 C 1922.71875 2058.53125 1888.519531 2099.929688 1872.769531 2099.929688 C 1857.019531 2099.929688 1861.96875 2131.421875 1858.371094 2135.921875 C 1854.769531 2140.421875 1835.429688 2127.378906 1826.429688 2134.121094 C 1817.429688 2140.871094 1832.730469 2166.070312 1816.078125 2174.171875 C 1799.429688 2182.269531 1778.730469 2172.371094 1758.03125 2163.371094 C 1737.328125 2154.371094 1744.980469 2130.519531 1719.339844 2148.96875 C 1693.691406 2167.421875 1653.191406 2196.671875 1680.191406 2250.210938 C 1707.191406 2303.761719 1738.679688 2287.109375 1735.53125 2299.710938 C 1732.378906 2312.300781 1702.238281 2315.898438 1695.941406 2334.351562 C 1689.640625 2352.800781 1738.230469 2350.550781 1740.480469 2355.050781 C 1742.730469 2359.550781 1689.640625 2470.238281 1759.378906 2481.484375 C 1829.128906 2492.734375 1827.78125 2436.492188 1839.480469 2467.085938 C 1851.179688 2497.683594 1838.128906 2534.128906 1855.21875 2529.632812 C 1872.320312 2525.132812 1909.21875 2492.734375 1928.570312 2491.386719 C 1947.910156 2490.035156 1954.660156 2525.132812 1965.011719 2521.980469 C 1975.359375 2518.832031 1991.558594 2504.433594 1994.261719 2526.929688 C 1996.960938 2549.429688 1999.660156 2577.777344 2016.761719 2567.878906 C 2033.851562 2557.976562 2065.800781 2519.730469 2073.898438 2514.78125 C 2082 2509.832031 2080.640625 2504.207031 2080.640625 2504.207031 "/>
<path fill-rule="evenodd" fill="rgb(48.631287%, 76.951599%, 3.140259%)" fill-opacity="1" d="M 1596.28125 2438.515625 C 1606.851562 2440.089844 1631.601562 2453.140625 1632.5 2462.589844 C 1633.398438 2472.035156 1640.148438 2474.960938 1621.25 2481.261719 C 1602.351562 2487.558594 1590.878906 2491.609375 1585.480469 2479.6875 C 1580.078125 2467.761719 1573.109375 2457.640625 1580.980469 2451.113281 C 1588.851562 2444.589844 1596.28125 2438.515625 1596.28125 2438.515625 "/>
<path fill-rule="evenodd" fill="rgb(48.631287%, 76.951599%, 3.140259%)" fill-opacity="1" d="M 1483.121094 2451.339844 C 1484.921875 2455.390625 1503.359375 2466.636719 1507.410156 2476.988281 C 1511.460938 2487.335938 1516.859375 2499.035156 1505.609375 2511.632812 C 1494.371094 2524.230469 1476.820312 2524.679688 1482.671875 2556.628906 C 1488.519531 2588.574219 1493.691406 2652.015625 1483.121094 2658.765625 C 1472.539062 2665.515625 1458.140625 2628.171875 1454.089844 2629.296875 C 1450.039062 2630.421875 1444.421875 2655.617188 1439.238281 2659.664062 C 1434.070312 2663.714844 1419 2640.992188 1417.421875 2638.742188 C 1415.851562 2636.492188 1405.28125 2626.144531 1404.601562 2644.59375 C 1403.929688 2663.039062 1392.230469 2656.515625 1392 2651.34375 C 1391.78125 2646.167969 1368.601562 2617.371094 1340.261719 2602.523438 C 1311.910156 2587.675781 1296.609375 2567.425781 1280.410156 2539.078125 C 1264.21875 2510.734375 1269.609375 2495.882812 1243.070312 2496.785156 C 1216.519531 2497.683594 1197.621094 2492.285156 1203.921875 2472.488281 C 1210.21875 2452.6875 1206.171875 2433.339844 1194.46875 2431.089844 C 1182.78125 2428.839844 1176.929688 2421.640625 1176.929688 2406.34375 C 1176.929688 2391.046875 1179.621094 2380.246094 1167.03125 2368.546875 C 1154.429688 2356.851562 1151.730469 2328.050781 1151.730469 2321.300781 C 1151.730469 2314.550781 1144.53125 2330.75 1133.28125 2303.308594 C 1122.03125 2275.859375 1122.03125 2255.609375 1122.03125 2255.609375 C 1122.03125 2255.609375 1102.230469 2267.761719 1088.28125 2244.808594 C 1074.328125 2221.871094 1084.679688 2189.019531 1074.78125 2180.921875 C 1064.878906 2172.820312 1053.640625 2155.71875 1054.089844 2148.070312 C 1054.539062 2140.421875 1023.941406 2119.28125 1016.289062 2116.578125 C 1008.640625 2113.878906 1014.941406 2066.628906 955.996094 2023.890625 C 897.054688 1981.140625 862.855469 1969.890625 857.90625 1942.449219 C 852.957031 1915 826.410156 1880.351562 853.855469 1885.75 C 881.304688 1891.148438 894.351562 1909.601562 921.351562 1909.148438 C 948.347656 1908.699219 1008.191406 1883.5 1019.441406 1920.851562 C 1030.691406 1958.191406 1027.539062 2010.839844 1048.679688 2016.238281 C 1069.828125 2021.640625 1141.828125 2008.140625 1148.578125 2061.230469 C 1155.328125 2114.328125 1138.679688 2114.78125 1165.671875 2114.78125 C 1192.671875 2114.78125 1210.21875 2096.78125 1217.421875 2130.53125 C 1224.621094 2164.269531 1190.871094 2181.371094 1217.871094 2182.71875 C 1244.859375 2184.070312 1254.761719 2140.421875 1261.511719 2180.46875 C 1268.261719 2220.519531 1279.960938 2225.46875 1322.710938 2239.410156 C 1365.449219 2253.359375 1402.351562 2268.660156 1377.148438 2279.910156 C 1351.949219 2291.160156 1297.511719 2268.210938 1315.058594 2287.109375 C 1332.601562 2306.011719 1373.550781 2298.808594 1365.449219 2316.351562 C 1357.351562 2333.898438 1374.898438 2363.148438 1386.601562 2357.300781 C 1398.300781 2351.449219 1433.390625 2301.511719 1428.441406 2351 C 1423.488281 2400.496094 1400.101562 2408.144531 1418.101562 2427.042969 C 1436.089844 2445.941406 1449.140625 2450.441406 1458.140625 2450.890625 C 1467.140625 2451.339844 1483.121094 2451.339844 1483.121094 2451.339844 "/>
<path fill-rule="evenodd" fill="rgb(48.631287%, 76.951599%, 3.140259%)" fill-opacity="1" d="M 1492.789062 2368.773438 C 1486.488281 2372.824219 1459.941406 2389.023438 1457.691406 2401.621094 C 1455.441406 2414.21875 1468.488281 2424.117188 1479.289062 2434.917969 C 1490.089844 2445.714844 1515.730469 2475.414062 1525.628906 2476.761719 C 1535.53125 2478.113281 1562.980469 2459.214844 1558.480469 2451.566406 C 1553.980469 2443.914062 1543.179688 2453.363281 1527.878906 2436.265625 C 1512.589844 2419.167969 1500.890625 2407.921875 1504.039062 2396.222656 C 1507.179688 2384.523438 1513.480469 2375.523438 1507.640625 2371.925781 C 1501.789062 2368.324219 1492.789062 2368.773438 1492.789062 2368.773438 "/>
<path fill-rule="evenodd" fill="rgb(48.631287%, 76.951599%, 3.140259%)" fill-opacity="1" d="M 1080.410156 2336.378906 C 1084.910156 2346.730469 1090.761719 2365.625 1087.609375 2376.648438 C 1084.460938 2387.671875 1083.558594 2400.945312 1067.578125 2390.597656 C 1051.609375 2380.25 1038.339844 2366.75 1040.589844 2357.53125 C 1042.839844 2348.300781 1053.179688 2324.898438 1080.410156 2336.378906 "/>
<path fill-rule="evenodd" fill="rgb(48.631287%, 76.951599%, 3.140259%)" fill-opacity="1" d="M 1039.910156 2301.058594 C 1041.261719 2301.058594 1056.339844 2307.578125 1056.558594 2315.230469 C 1056.78125 2322.878906 1055.890625 2329.398438 1044.410156 2329.179688 C 1032.941406 2328.949219 1023.039062 2332.78125 1026.410156 2321.980469 C 1029.789062 2311.179688 1039.910156 2301.058594 1039.910156 2301.058594 "/>
<path fill-rule="evenodd" fill="rgb(48.631287%, 76.951599%, 3.140259%)" fill-opacity="1" d="M 984.117188 2166.070312 C 986.820312 2166.070312 1010.21875 2177.769531 1011.570312 2195.320312 C 1012.921875 2212.871094 1009.320312 2226.371094 988.617188 2224.121094 C 967.917969 2221.871094 947.222656 2200.269531 949.472656 2190.371094 C 951.722656 2180.46875 961.167969 2161.570312 963.871094 2161.570312 C 966.570312 2161.570312 984.117188 2166.070312 984.117188 2166.070312 "/>
<path fill-rule="evenodd" fill="rgb(48.631287%, 76.951599%, 3.140259%)" fill-opacity="1" d="M 1045.308594 2240.761719 C 1057.460938 2248.859375 1070.511719 2254.710938 1066.910156 2264.609375 C 1063.308594 2274.511719 1050.710938 2277.210938 1044.410156 2272.261719 C 1038.109375 2267.308594 1036.761719 2253.808594 1036.761719 2253.808594 L 1045.308594 2240.761719 "/>
<path fill-rule="evenodd" fill="rgb(48.631287%, 76.951599%, 3.140259%)" fill-opacity="1" d="M 892.554688 2072.03125 C 897.054688 2091.160156 902.902344 2093.628906 892.328125 2098.128906 C 881.753906 2102.628906 876.582031 2104.878906 875.457031 2095.660156 C 874.332031 2086.429688 881.753906 2075.410156 881.753906 2075.410156 L 892.554688 2072.03125 "/>
<path fill-rule="evenodd" fill="rgb(48.631287%, 76.951599%, 3.140259%)" fill-opacity="1" d="M 1102.460938 1837.378906 C 1108.308594 1836.929688 1135.300781 1845.929688 1128.101562 1860.78125 C 1120.898438 1875.628906 1104.710938 1871.578125 1099.308594 1867.53125 C 1093.910156 1863.480469 1089.410156 1856.28125 1093.011719 1849.980469 C 1096.609375 1843.679688 1102.460938 1837.378906 1102.460938 1837.378906 "/>
<path fill-rule="evenodd" fill="rgb(48.631287%, 76.951599%, 3.140259%)" fill-opacity="1" d="M 2322.039062 1933 C 2322.039062 1933 2342.519531 1915 2342.96875 1912.980469 C 2343.421875 1910.949219 2336.441406 1892.5 2330.140625 1897.449219 C 2323.851562 1902.398438 2315.75 1907.800781 2315.75 1914.550781 C 2315.75 1921.300781 2322.039062 1933 2322.039062 1933 "/>
<path fill-rule="evenodd" fill="rgb(48.631287%, 76.951599%, 3.140259%)" fill-opacity="1" d="M 2392.011719 1875.628906 C 2392.011719 1875.628906 2417.429688 1858.980469 2417.660156 1857.628906 C 2417.878906 1856.28125 2406.640625 1847.058594 2393.808594 1851.109375 C 2380.988281 1855.160156 2374.019531 1853.359375 2372.441406 1859.660156 C 2370.871094 1865.960938 2365.921875 1873.828125 2372.890625 1875.179688 C 2379.871094 1876.53125 2392.011719 1875.628906 2392.011719 1875.628906 "/>
<path fill-rule="evenodd" fill="rgb(48.631287%, 76.951599%, 3.140259%)" fill-opacity="1" d="M 2471.878906 1817.140625 C 2472.558594 1818.941406 2465.128906 1829.289062 2456.128906 1829.511719 C 2447.128906 1829.738281 2428.011719 1810.839844 2430.03125 1805.441406 C 2432.058594 1800.039062 2428.460938 1727.371094 2471.878906 1718.148438 C 2515.300781 1708.921875 2515.53125 1701.28125 2515.53125 1691.148438 C 2515.53125 1681.03125 2555.789062 1622.53125 2557.589844 1666.628906 C 2559.390625 1710.71875 2552.191406 1725.570312 2563.441406 1718.820312 C 2574.691406 1712.070312 2563.890625 1685.53125 2578.289062 1681.03125 C 2592.691406 1676.53125 2618.789062 1682.378906 2619.238281 1676.078125 C 2619.691406 1669.78125 2594.488281 1662.128906 2611.589844 1654.480469 C 2628.679688 1646.828125 2638.140625 1646.378906 2644.878906 1631.078125 C 2651.628906 1615.78125 2655.230469 1580.238281 2673.679688 1604.089844 C 2692.128906 1627.929688 2700.679688 1634.679688 2706.980469 1638.730469 C 2713.28125 1642.78125 2714.179688 1633.328125 2714.628906 1651.78125 C 2715.078125 1670.230469 2741.628906 1764.269531 2735.78125 1780.921875 C 2729.929688 1797.558594 2714.628906 1782.71875 2713.28125 1807.460938 C 2711.929688 1832.210938 2727.230469 1849.308594 2712.378906 1845.710938 C 2697.53125 1842.109375 2703.378906 1754.820312 2685.378906 1765.621094 C 2667.378906 1776.421875 2638.589844 1802.058594 2649.390625 1820.058594 C 2660.179688 1838.058594 2678.179688 1853.808594 2661.980469 1862.808594 C 2645.789062 1871.808594 2635.441406 1877.210938 2614.289062 1860.558594 C 2593.140625 1843.910156 2577.390625 1824.558594 2578.738281 1804.761719 C 2580.089844 1784.96875 2613.839844 1774.171875 2576.941406 1764.269531 C 2540.050781 1754.371094 2533.75 1742.21875 2522.5 1753.921875 C 2511.25 1765.621094 2507.648438 1780.921875 2497.300781 1766.519531 C 2486.949219 1752.121094 2487.398438 1738.171875 2483.808594 1744.46875 C 2480.210938 1750.769531 2466.261719 1762.46875 2470.761719 1780.46875 C 2475.261719 1798.460938 2471.878906 1817.140625 2471.878906 1817.140625 "/>
<path fill-rule="evenodd" fill="rgb(48.631287%, 76.951599%, 3.140259%)" fill-opacity="1" d="M 2502.25 1538.390625 C 2501.800781 1522.191406 2533.75 1492.050781 2536.898438 1505.550781 C 2540.050781 1519.039062 2540.5 1542.441406 2529.699219 1562.238281 C 2518.898438 1582.039062 2524.75 1612.628906 2525.648438 1622.078125 C 2526.550781 1631.53125 2522.5 1650.429688 2507.199219 1640.980469 C 2491.898438 1631.53125 2464.910156 1618.03125 2469.410156 1596.441406 C 2473.898438 1574.839844 2482 1572.589844 2487.398438 1569.890625 C 2492.800781 1567.191406 2502.25 1538.390625 2502.25 1538.390625 "/>
<path fill-rule="evenodd" fill="rgb(48.631287%, 76.951599%, 3.140259%)" fill-opacity="1" d="M 2555.789062 1498.800781 C 2555.789062 1498.800781 2557.148438 1528.941406 2545.449219 1546.039062 C 2533.75 1563.140625 2525.199219 1595.089844 2529.25 1595.988281 C 2533.300781 1596.890625 2555.351562 1571.691406 2561.640625 1560.890625 C 2567.941406 1550.089844 2570.191406 1543.339844 2570.191406 1527.589844 C 2570.191406 1511.851562 2555.789062 1498.800781 2555.789062 1498.800781 "/>
<path fill-rule="evenodd" fill="rgb(48.631287%, 76.951599%, 3.140259%)" fill-opacity="1" d="M 2571.769531 1566.289062 C 2580.320312 1569.660156 2594.269531 1575.738281 2590.441406 1586.761719 C 2586.621094 1597.789062 2582.789062 1606.339844 2572.671875 1607.691406 C 2562.539062 1609.039062 2552.191406 1613.980469 2557.371094 1600.261719 C 2562.539062 1586.539062 2571.769531 1566.289062 2571.769531 1566.289062 "/>
<path fill-rule="evenodd" fill="rgb(48.631287%, 76.951599%, 3.140259%)" fill-opacity="1" d="M 2555.351562 1622.980469 C 2555.351562 1622.980469 2560.289062 1643.230469 2552.421875 1643.679688 C 2544.550781 1644.128906 2535.550781 1646.828125 2538.699219 1638.058594 C 2541.851562 1629.28125 2555.351562 1622.980469 2555.351562 1622.980469 "/>
<path fill-rule="evenodd" fill="rgb(48.631287%, 76.951599%, 3.140259%)" fill-opacity="1" d="M 2614.738281 1623.429688 C 2616.199219 1625.460938 2627.449219 1635.359375 2619.910156 1639.859375 C 2612.378906 1644.359375 2606.871094 1650.539062 2602.03125 1644.019531 C 2597.191406 1637.488281 2594.488281 1631.308594 2596.738281 1628.828125 C 2598.988281 1626.359375 2603.378906 1620.851562 2606.421875 1620.960938 C 2609.449219 1621.070312 2614.738281 1623.429688 2614.738281 1623.429688 "/>
<path fill-rule="evenodd" fill="rgb(48.631287%, 76.951599%, 3.140259%)" fill-opacity="1" d="M 2692.019531 1569.890625 C 2700.789062 1581.589844 2718.789062 1592.160156 2711.589844 1598.910156 C 2704.390625 1605.660156 2686.839844 1602.960938 2685.039062 1600.941406 C 2683.238281 1598.910156 2685.039062 1578.660156 2685.039062 1578.660156 L 2692.019531 1569.890625 "/>
<path fill-rule="evenodd" fill="rgb(48.631287%, 76.951599%, 3.140259%)" fill-opacity="1" d="M 2599.78125 1471.128906 C 2599.78125 1474.050781 2593.03125 1483.28125 2605.628906 1485.300781 C 2618.230469 1487.328125 2616.199219 1474.5 2620.03125 1488 C 2623.851562 1501.5 2623.179688 1509.371094 2622.730469 1512.75 C 2622.28125 1516.121094 2656.699219 1534.800781 2653.550781 1553.691406 C 2650.398438 1572.589844 2641.398438 1572.589844 2622.5 1571.691406 C 2603.601562 1570.789062 2592.351562 1577.089844 2597.308594 1553.238281 C 2602.25 1529.398438 2616.648438 1524.449219 2600.449219 1518.148438 C 2584.261719 1511.851562 2573.910156 1513.199219 2573.910156 1497.898438 C 2573.910156 1482.601562 2577.511719 1465.949219 2585.148438 1464.601562 C 2592.808594 1463.25 2599.78125 1471.128906 2599.78125 1471.128906 "/>
<path fill-rule="evenodd" fill="rgb(48.631287%, 76.951599%, 3.140259%)" fill-opacity="1" d="M 2594.148438 1396.660156 C 2606.300781 1402.058594 2627.898438 1385.859375 2641.851562 1407.910156 C 2655.800781 1429.960938 2663.449219 1450.660156 2660.300781 1462.351562 C 2657.148438 1474.050781 2659.851562 1482.601562 2663.898438 1493.398438 C 2667.949219 1504.199219 2675.148438 1516.800781 2658.5 1509.601562 C 2641.851562 1502.398438 2611.699219 1445.261719 2607.648438 1443.460938 C 2603.601562 1441.660156 2579.308594 1423.660156 2579.308594 1413.308594 C 2579.308594 1402.960938 2594.148438 1396.660156 2594.148438 1396.660156 "/>
<path fill-rule="evenodd" fill="rgb(48.631287%, 76.951599%, 3.140259%)" fill-opacity="1" d="M 2470.191406 1467.078125 C 2476.039062 1469.328125 2505.96875 1466.398438 2511.140625 1475.179688 C 2516.320312 1483.949219 2494.488281 1520.171875 2479.640625 1524.671875 C 2464.789062 1529.171875 2438.699219 1537.269531 2437.800781 1529.171875 C 2436.898438 1521.070312 2442.300781 1493.628906 2442.300781 1485.53125 C 2442.300781 1477.429688 2436.449219 1465.28125 2431.5 1460.328125 C 2426.550781 1455.378906 2441.398438 1438.730469 2449.039062 1443.230469 C 2456.691406 1447.730469 2470.191406 1467.078125 2470.191406 1467.078125 "/>
<path fill-rule="evenodd" fill="rgb(48.631287%, 76.951599%, 3.140259%)" fill-opacity="1" d="M 2488.421875 1532.550781 C 2490.671875 1538.851562 2498.769531 1548.96875 2484.371094 1549.648438 C 2469.96875 1550.320312 2460.96875 1550.769531 2463.890625 1543.351562 C 2466.820312 1535.921875 2472.441406 1533.449219 2474.691406 1533.21875 C 2476.941406 1533 2488.421875 1532.550781 2488.421875 1532.550781 "/>
<path fill-rule="evenodd" fill="rgb(48.631287%, 76.951599%, 3.140259%)" fill-opacity="1" d="M 2287.289062 1492.730469 C 2289.539062 1501.28125 2314.738281 1530.519531 2300.339844 1547.171875 C 2285.941406 1563.820312 2278.289062 1550.769531 2274.691406 1569.21875 C 2271.089844 1587.671875 2278.289062 1592.621094 2266.589844 1597.121094 C 2254.890625 1601.621094 2240.488281 1600.71875 2240.488281 1607.460938 C 2240.488281 1614.210938 2240.488281 1610.609375 2240.488281 1621.410156 C 2240.488281 1632.210938 2168.730469 1694.980469 2159.730469 1697 C 2150.730469 1699.03125 2137.910156 1683.28125 2150.960938 1674.730469 C 2164 1666.179688 2265.46875 1557.070312 2270.640625 1534.800781 C 2275.820312 1512.53125 2272.671875 1497 2275.140625 1488.230469 C 2277.621094 1479.449219 2287.289062 1492.730469 2287.289062 1492.730469 "/>
<path fill-rule="evenodd" fill="rgb(48.631287%, 76.951599%, 3.140259%)" fill-opacity="1" d="M 2154.101562 1712.75 C 2154.101562 1712.75 2168.5 1742.898438 2155.449219 1744.25 C 2142.398438 1745.601562 2129.808594 1747.621094 2129.808594 1733.230469 C 2129.808594 1718.828125 2132.960938 1702.628906 2136.558594 1701.949219 C 2140.160156 1701.28125 2150.5 1697.679688 2152.078125 1699.929688 C 2153.648438 1702.179688 2154.101562 1712.75 2154.101562 1712.75 "/>
<path fill-rule="evenodd" fill="rgb(48.631287%, 76.951599%, 3.140259%)" fill-opacity="1" d="M 2320.808594 1534.800781 C 2321.03125 1537.269531 2332.730469 1553.699219 2325.53125 1558.199219 C 2318.339844 1562.691406 2310.011719 1562.46875 2310.691406 1554.148438 C 2311.359375 1545.820312 2316.761719 1528.050781 2320.808594 1534.800781 "/>
<path fill-rule="evenodd" fill="rgb(48.631287%, 76.951599%, 3.140259%)" fill-opacity="1" d="M 2312.488281 1413.761719 C 2322.378906 1422.089844 2337.679688 1435.578125 2334.53125 1440.980469 C 2331.378906 1446.378906 2327.328125 1451.109375 2314.058594 1444.578125 C 2300.789062 1438.058594 2291.339844 1434.011719 2292.460938 1427.03125 C 2293.589844 1420.058594 2295.609375 1414.890625 2300.109375 1413.761719 C 2304.609375 1412.640625 2312.488281 1413.761719 2312.488281 1413.761719 "/>
<path fill-rule="evenodd" fill="rgb(48.631287%, 76.951599%, 3.140259%)" fill-opacity="1" d="M 2302.808594 1450.429688 C 2302.808594 1450.429688 2324.410156 1468.96875 2317.210938 1471.621094 C 2310.011719 1474.269531 2300.109375 1475.820312 2294.941406 1468.53125 C 2289.761719 1461.25 2283.011719 1455.511719 2287.960938 1452.230469 C 2292.910156 1449.308594 2302.808594 1450.429688 2302.808594 1450.429688 "/>
<path fill-rule="evenodd" fill="rgb(48.631287%, 76.951599%, 3.140259%)" fill-opacity="1" d="M 2355.679688 1331.648438 C 2375.25 1335.699219 2400.230469 1354.140625 2404.050781 1366.519531 C 2407.878906 1378.890625 2428.351562 1432.210938 2391 1423.660156 C 2353.660156 1415.109375 2345.328125 1416.238281 2347.359375 1400.039062 C 2349.378906 1383.839844 2352.980469 1369.890625 2346.011719 1366.289062 C 2339.03125 1362.691406 2326.660156 1349.421875 2327.558594 1343.351562 C 2328.460938 1337.269531 2338.808594 1328.5 2340.378906 1328.5 C 2341.960938 1328.5 2355.679688 1331.648438 2355.679688 1331.648438 "/>
<path fill-rule="evenodd" fill="rgb(48.631287%, 76.951599%, 3.140259%)" fill-opacity="1" d="M 2338.808594 1263.03125 C 2338.578125 1257.410156 2341.28125 1235.128906 2346.910156 1247.058594 C 2352.53125 1258.980469 2344.210938 1281.929688 2341.960938 1289.800781 C 2339.710938 1297.679688 2364.011719 1321.75 2375.25 1321.300781 C 2386.5 1320.851562 2384.480469 1297.679688 2397.53125 1299.03125 C 2410.578125 1300.378906 2448.601562 1338.171875 2456.019531 1343.800781 C 2463.449219 1349.421875 2472 1350.769531 2470.871094 1336.148438 C 2469.75 1321.519531 2462.320312 1301.71875 2476.71875 1314.101562 C 2491.121094 1326.46875 2514.96875 1336.601562 2511.140625 1348.289062 C 2507.320312 1359.988281 2492.691406 1356.390625 2485.269531 1362.238281 C 2477.851562 1368.089844 2470.421875 1382.269531 2485.488281 1381.820312 C 2500.570312 1381.371094 2506.191406 1368.769531 2522.839844 1381.140625 C 2539.488281 1393.519531 2548.710938 1414.660156 2555.460938 1410.839844 C 2562.210938 1407.011719 2580.878906 1375.738281 2570.980469 1370.570312 C 2561.089844 1365.390625 2520.140625 1340.871094 2541.738281 1329.621094 C 2563.339844 1318.371094 2591.460938 1321.75 2588.980469 1311.171875 C 2586.511719 1300.601562 2584.929688 1279.898438 2573.679688 1282.601562 C 2562.429688 1285.300781 2573.230469 1299.03125 2556.808594 1301.5 C 2540.390625 1303.980469 2516.320312 1284.851562 2508.21875 1290.03125 C 2500.121094 1295.199219 2495.171875 1314.101562 2493.589844 1312.96875 C 2492.019531 1311.851562 2503.269531 1267.300781 2480.769531 1267.300781 C 2458.28125 1267.300781 2428.460938 1296.441406 2417.78125 1279 C 2407.089844 1261.570312 2361.640625 1189.351562 2401.691406 1166.851562 C 2441.738281 1144.359375 2453.429688 1083.609375 2436.78125 1065.621094 C 2420.140625 1047.621094 2403.039062 1026.921875 2413.390625 1011.621094 C 2423.738281 996.320312 2408.890625 939.179688 2399.890625 939.179688 C 2390.890625 939.179688 2376.039062 937.378906 2381.890625 958.078125 C 2387.738281 978.769531 2403.039062 985.96875 2389.089844 990.921875 C 2375.140625 995.871094 2362.988281 974.730469 2338.691406 976.078125 C 2314.398438 977.429688 2313.050781 987.320312 2310.800781 998.570312 C 2308.550781 1009.820312 2322.949219 1093.511719 2306.75 1118.261719 C 2290.550781 1143.011719 2280.199219 1112.859375 2273.898438 1139.859375 C 2267.601562 1166.851562 2300 1201.5 2300 1228.5 C 2300 1255.488281 2322.039062 1252.339844 2322.039062 1252.339844 C 2322.039062 1252.339844 2334.191406 1290.140625 2337.339844 1282.039062 C 2340.488281 1273.941406 2338.808594 1263.03125 2338.808594 1263.03125 "/>
<path fill-rule="evenodd" fill="rgb(48.631287%, 76.951599%, 3.140259%)" fill-opacity="1" d="M 2424.179688 1211.851562 C 2429.128906 1233.898438 2434.980469 1246.949219 2427.78125 1250.988281 C 2420.578125 1255.039062 2406.179688 1252.339844 2409.339844 1241.101562 C 2412.480469 1229.851562 2424.179688 1211.851562 2424.179688 1211.851562 "/>
<path fill-rule="evenodd" fill="rgb(48.631287%, 76.951599%, 3.140259%)" fill-opacity="1" d="M 2507.878906 1401.730469 C 2507.878906 1401.730469 2508.101562 1405.101562 2507.429688 1425.128906 C 2506.75 1445.148438 2521.148438 1443.121094 2523.398438 1441.320312 C 2525.648438 1439.519531 2524.75 1443.570312 2542.289062 1451.671875 C 2559.839844 1459.769531 2577.171875 1455.71875 2572.671875 1447.621094 C 2568.171875 1439.519531 2571.089844 1434.800781 2552.421875 1427.828125 C 2533.75 1420.851562 2524.75 1416.578125 2521.601562 1410.28125 C 2518.449219 1403.980469 2508.78125 1399.929688 2508.78125 1399.929688 L 2507.878906 1401.730469 "/>
<path fill-rule="evenodd" fill="rgb(48.631287%, 76.951599%, 3.140259%)" fill-opacity="1" d="M 2469.628906 1405.78125 C 2476.378906 1405.78125 2493.480469 1410.050781 2488.078125 1417.929688 C 2482.679688 1425.800781 2473 1428.050781 2467.148438 1425.800781 C 2461.308594 1423.550781 2457.03125 1419.5 2459.5 1416.578125 C 2461.980469 1413.648438 2469.628906 1405.78125 2469.628906 1405.78125 "/>
<path fill-rule="evenodd" fill="rgb(48.631287%, 76.951599%, 3.140259%)" fill-opacity="1" d="M 2449.828125 1394.078125 C 2449.828125 1394.078125 2449.828125 1409.601562 2447.578125 1419.050781 C 2445.328125 1428.5 2444.210938 1433.898438 2436.328125 1431.421875 C 2428.460938 1428.949219 2421.710938 1424.230469 2422.609375 1415.679688 C 2423.511719 1407.128906 2421.929688 1402.851562 2427.558594 1398.351562 C 2433.179688 1393.851562 2449.828125 1394.078125 2449.828125 1394.078125 "/>
<path fill-rule="evenodd" fill="rgb(48.631287%, 76.951599%, 3.140259%)" fill-opacity="1" d="M 1147.679688 1915.570312 C 1147.679688 1915.570312 1171.96875 2006.460938 1198.070312 2037.058594 C 1224.171875 2067.648438 1234.070312 2085.648438 1234.070312 2100.949219 C 1234.070312 2116.25 1252.070312 2119.851562 1279.058594 2124.351562 C 1306.058594 2128.851562 1301.558594 2136.050781 1346.558594 2156.738281 C 1391.550781 2177.441406 1392.449219 2190.941406 1427.539062 2177.441406 C 1462.640625 2163.941406 1485.140625 2166.640625 1468.941406 2140.550781 C 1452.738281 2114.449219 1448.238281 2111.75 1420.351562 2081.148438 C 1392.449219 2050.558594 1374.449219 2040.660156 1376.25 2001.058594 C 1378.050781 1961.46875 1378.050781 1910.171875 1378.050781 1910.171875 C 1378.050781 1910.171875 1310.558594 1860.679688 1290.308594 1840.429688 C 1270.058594 1820.179688 1243.070312 1796.339844 1218.320312 1793.640625 C 1193.570312 1790.941406 1154.878906 1759.890625 1157.128906 1747.289062 C 1159.378906 1734.691406 1129.230469 1606.460938 1098.628906 1619.050781 C 1068.03125 1631.648438 1059.039062 1654.148438 1053.640625 1619.050781 C 1048.238281 1583.960938 1120.230469 1493.519531 1113.929688 1456.171875 C 1107.628906 1418.828125 1102.679688 1320.289062 1127.429688 1345.929688 C 1152.179688 1371.578125 1127.429688 1401.28125 1158.03125 1404.429688 C 1188.621094 1407.578125 1312.359375 1396.328125 1315.511719 1416.578125 C 1318.660156 1436.820312 1312.808594 1506.121094 1324.511719 1502.070312 C 1336.210938 1498.019531 1360.5 1456.621094 1363.648438 1485.421875 C 1366.800781 1514.21875 1356.449219 1534.460938 1365.449219 1536.710938 C 1374.449219 1538.960938 1393.800781 1520.070312 1426.191406 1526.808594 C 1458.589844 1533.558594 1447.339844 1563.710938 1459.488281 1561.910156 C 1471.640625 1560.109375 1495.488281 1536.261719 1481.539062 1553.359375 C 1467.589844 1570.460938 1450.488281 1700.5 1488.289062 1659.101562 C 1526.078125 1617.710938 1530.578125 1593.410156 1554.878906 1583.511719 C 1579.179688 1573.609375 1600.78125 1572.710938 1598.980469 1543.910156 C 1597.179688 1515.121094 1553.980469 1473.71875 1589.980469 1481.820312 C 1625.96875 1489.921875 1601.679688 1533.121094 1639.46875 1505.21875 C 1677.269531 1477.320312 1786.148438 1452.121094 1765.460938 1365.730469 C 1744.761719 1279.339844 1723.160156 1272.140625 1710.570312 1230.75 C 1697.96875 1189.351562 1693.46875 1147.058594 1662.871094 1138.960938 C 1632.269531 1130.859375 1634.070312 1086.761719 1583.679688 1071.46875 C 1533.28125 1056.171875 1553.078125 999.46875 1493.691406 980.578125 C 1434.289062 961.679688 1399.199219 951.78125 1423.5 927.480469 C 1447.789062 903.191406 1471.191406 887.890625 1480.191406 869.890625 C 1489.191406 851.890625 1472.988281 812.289062 1492.789062 806 C 1512.589844 799.699219 1579.628906 751.550781 1554.429688 744.800781 C 1529.230469 738.050781 1483.339844 750.199219 1471.191406 730.851562 C 1459.039062 711.511719 1453.421875 672.359375 1425.289062 679.558594 C 1397.179688 686.761719 1386.828125 658.640625 1378.949219 660.890625 C 1371.078125 663.140625 1362.980469 660.210938 1351.5 680.011719 C 1340.03125 699.808594 1321.808594 689.910156 1311.460938 704.761719 C 1301.109375 719.609375 1311.910156 723.210938 1301.109375 726.808594 C 1290.308594 730.410156 1281.761719 704.761719 1269.160156 706.558594 C 1256.570312 708.359375 1244.871094 726.359375 1244.871094 734.011719 C 1244.871094 741.648438 1230.921875 701.160156 1213.820312 708.808594 C 1196.71875 716.460938 1136.429688 718.261719 1158.480469 755.148438 C 1180.519531 792.050781 1193.570312 800.148438 1169.71875 808.25 C 1145.878906 816.351562 1143.628906 775.398438 1125.628906 787.550781 C 1107.628906 799.699219 1100.429688 841.539062 1081.078125 811.851562 C 1061.730469 782.148438 1077.929688 765.949219 1056.339844 765.949219 C 1034.738281 765.949219 1020.789062 779.898438 1022.140625 758.300781 C 1023.488281 736.710938 1059.480469 702.960938 1045.539062 694.410156 C 1031.589844 685.859375 1005.488281 690.359375 1000.988281 678.210938 C 996.492188 666.058594 1021.691406 625.570312 993.792969 626.921875 C 965.894531 628.269531 933.949219 675.960938 920.898438 646.269531 C 907.851562 616.570312 976.695312 548.628906 982.992188 513.53125 C 989.292969 478.429688 965.445312 411.839844 955.996094 400.589844 C 946.546875 389.339844 948.796875 342.101562 920.449219 354.25 C 892.101562 366.398438 885.351562 394.289062 887.152344 410.488281 C 888.953125 426.691406 887.152344 415.890625 861.054688 418.140625 C 834.960938 420.390625 771.066406 464.941406 773.765625 507.679688 C 776.464844 550.429688 760.714844 551.328125 750.367188 562.578125 C 740.019531 573.820312 736.867188 597.671875 740.019531 607.121094 C 743.167969 616.570312 715.722656 637.71875 700.425781 642.671875 C 685.125 647.621094 648.679688 614.769531 653.628906 663.359375 C 658.578125 711.960938 653.628906 732.210938 642.382812 756.050781 C 631.132812 779.898438 627.980469 774.5 613.585938 781.699219 C 599.183594 788.898438 633.382812 816.800781 612.234375 818.148438 C 591.089844 819.5 546.089844 852.789062 585.238281 875.738281 C 624.382812 898.691406 662.179688 859.539062 660.378906 925.691406 C 658.578125 991.828125 662.179688 1022.878906 676.574219 1005.78125 C 690.976562 988.679688 684.226562 922.089844 697.726562 978.328125 C 711.222656 1034.570312 734.621094 1037.269531 715.722656 1097.570312 C 696.824219 1157.859375 678.828125 1224.898438 758.917969 1194.308594 C 839.007812 1163.710938 855.660156 1125.011719 866.007812 1129.058594 C 876.355469 1133.109375 875.457031 1094.421875 884.902344 1088.570312 C 894.351562 1082.71875 912.351562 1095.320312 912.351562 1108.371094 C 912.351562 1121.410156 917.753906 1147.058594 921.351562 1161.011719 C 924.949219 1174.960938 951.496094 1278.898438 954.195312 1320.289062 C 956.898438 1361.691406 976.695312 1335.589844 982.542969 1342.789062 C 988.394531 1349.988281 997.394531 1388.238281 1000.089844 1403.078125 C 1002.789062 1417.929688 989.292969 1553.371094 977.597656 1627.160156 C 965.898438 1700.949219 943.402344 1735.148438 982.996094 1736.949219 C 1022.589844 1738.75 1051.390625 1762.140625 1051.390625 1786.441406 C 1051.390625 1810.738281 1094.589844 1795.441406 1126.078125 1825.140625 C 1157.578125 1854.828125 1147.679688 1915.570312 1147.679688 1915.570312 "/>
</svg>
